<svg width="514" height="158" viewBox="0 0 514 158" fill="none" xmlns="http://www.w3.org/2000/svg">
<rect width="510" height="153" fill="#20344D"/>
<g clip-path="url(#clip0)">
<path fill-rule="evenodd" clip-rule="evenodd" d="M86.8974 31.7915L94.9065 30L94.8652 38.207L94.551 100.626L94.4995 110.855L86.5317 104.44L73.5179 93.9617L73.5694 83.7323L86.5832 94.2105L86.8561 39.9985L33.9507 51.8324L44.3246 60.1852L34.3417 62.4181L23.9678 54.0654L16 47.6499L25.9829 45.417L86.8974 31.7915ZM65.5501 87.5462L42.3095 68.8336L52.2924 66.6006L65.6016 77.3168L65.5501 87.5462Z" fill="#DD950D"/>
<mask id="mask0" mask-type="alpha" maskUnits="userSpaceOnUse" x="-40" y="59" width="79" height="80">
<path fill-rule="evenodd" clip-rule="evenodd" d="M-21.4493 66.0014C-25.5537 68.6115 -29.2401 72.0306 -32.2569 76.2179C-44.9746 93.8705 -40.9741 118.49 -23.3215 131.208C-5.66893 143.926 18.9509 139.925 31.6687 122.273C34.6854 118.086 36.7615 113.506 37.9378 108.787L-21.4493 66.0014ZM-6.5706 60.3547L38.5831 92.8855C36.9578 82.9498 31.5474 73.6326 22.7334 67.2826C13.9195 60.9326 3.36857 58.7506 -6.5706 60.3547Z" fill="white"/>
</mask>
<g mask="url(#mask0)">
<path d="M-21.4493 66.0014L-17.3095 60.2552L-21.2017 57.4511L-25.2497 60.0253L-21.4493 66.0014ZM37.9378 108.787L44.8096 110.499L45.9698 105.845L42.0776 103.04L37.9378 108.787ZM-6.57054 60.3546L-7.69892 53.363L-24.6034 56.0915L-10.7103 66.1007L-6.57054 60.3546ZM38.5832 92.8854L34.4434 98.6316L48.3366 108.641L45.5723 91.7421L38.5832 92.8854ZM-25.2497 60.0253C-30.1007 63.1103 -34.4514 67.1486 -38.0029 72.0781L-26.5107 80.3576C-24.0287 76.9126 -21.0066 74.1126 -17.649 71.9774L-25.2497 60.0253ZM-38.0029 72.0781C-53.007 92.9042 -48.2873 121.95 -27.4613 136.954L-19.1817 125.462C-33.6608 115.031 -36.9421 94.8367 -26.5107 80.3576L-38.0029 72.0781ZM-27.4613 136.954C-6.63528 151.958 22.4108 147.239 37.4148 126.413L25.9226 118.133C15.4912 132.612 -4.7027 135.893 -19.1817 125.462L-27.4613 136.954ZM37.4148 126.413C40.9663 121.483 43.4193 116.078 44.8096 110.499L31.0659 107.074C30.1037 110.935 28.4046 114.688 25.9226 118.133L37.4148 126.413ZM42.0776 103.04L-17.3095 60.2552L-25.5891 71.7475L33.798 114.533L42.0776 103.04ZM-10.7103 66.1007L34.4434 98.6316L42.7229 87.1393L-2.43081 54.6085L-10.7103 66.1007ZM45.5723 91.7421C43.6565 80.0311 37.27 69.0269 26.8732 61.5365L18.5937 73.0288C25.8247 78.2383 30.2591 85.8686 31.5939 94.0287L45.5723 91.7421ZM26.8732 61.5365C16.4764 54.0462 4.01616 51.4723 -7.69892 53.363L-5.44213 67.3463C2.72094 66.0288 11.3625 67.8191 18.5937 73.0288L26.8732 61.5365Z" fill="#DD950D"/>
<path d="M54.9509 103.586L-21.1851 48.7346" stroke="#DD950D" stroke-width="8"/>
<path d="M44.6015 117.952L-31.5345 63.0998" stroke="#DD950D" stroke-width="8"/>
</g>
</g>
<path d="M162.038 68.264C161.483 68.8613 160.609 69.48 159.414 70.12C158.219 70.7173 156.833 71.272 155.254 71.784C153.718 72.296 152.139 72.7013 150.518 73C148.897 73.3413 147.361 73.512 145.91 73.512C140.833 73.512 136.417 72.5307 132.662 70.568C128.907 68.6053 126.006 65.9173 123.958 62.504C121.953 59.0907 120.95 55.1867 120.95 50.792C120.95 46.4827 121.59 42.7493 122.87 39.592C124.193 36.392 125.963 33.7467 128.182 31.656C130.443 29.5227 133.025 27.944 135.926 26.92C138.87 25.896 141.942 25.384 145.142 25.384C148.171 25.384 150.945 25.7253 153.462 26.408C155.979 27.048 158.113 27.8587 159.862 28.84L156.854 37.48C156.086 37.0533 155.062 36.6267 153.782 36.2C152.502 35.7733 151.201 35.432 149.878 35.176C148.555 34.8773 147.382 34.728 146.358 34.728C141.281 34.728 137.377 36.008 134.646 38.568C131.915 41.0853 130.55 44.8827 130.55 49.96C130.55 52.904 131.211 55.4427 132.534 57.576C133.857 59.7093 135.691 61.352 138.038 62.504C140.427 63.656 143.137 64.232 146.166 64.232C147.489 64.232 148.705 64.1467 149.814 63.976C150.923 63.7627 151.862 63.4427 152.63 63.016V57.32H144.502V48.36H162.038V68.264ZM172.58 25.896H204.708V34.856H181.86V44.904H202.084V53.864H181.86V64.04H205.604V73H172.58V25.896ZM212.325 49.512C212.325 46.2693 212.944 43.1973 214.181 40.296C215.418 37.3947 217.125 34.8347 219.301 32.616C221.52 30.3547 224.08 28.584 226.981 27.304C229.882 26.024 232.997 25.384 236.325 25.384C239.61 25.384 242.704 26.024 245.605 27.304C248.506 28.584 251.066 30.3547 253.285 32.616C255.546 34.8347 257.296 37.3947 258.533 40.296C259.813 43.1973 260.453 46.2693 260.453 49.512C260.453 52.84 259.813 55.9547 258.533 58.856C257.296 61.7573 255.546 64.3173 253.285 66.536C251.066 68.712 248.506 70.4187 245.605 71.656C242.704 72.8933 239.61 73.512 236.325 73.512C232.997 73.512 229.882 72.8933 226.981 71.656C224.08 70.4187 221.52 68.712 219.301 66.536C217.125 64.3173 215.418 61.7573 214.181 58.856C212.944 55.9547 212.325 52.84 212.325 49.512ZM221.925 49.512C221.925 52.2853 222.565 54.824 223.845 57.128C225.168 59.3893 226.938 61.2027 229.157 62.568C231.376 63.8907 233.872 64.552 236.645 64.552C239.333 64.552 241.744 63.8907 243.877 62.568C246.053 61.2027 247.76 59.3893 248.997 57.128C250.234 54.824 250.853 52.2853 250.853 49.512C250.853 46.6533 250.213 44.0933 248.933 41.832C247.653 39.528 245.925 37.7147 243.749 36.392C241.573 35.0267 239.12 34.344 236.389 34.344C233.658 34.344 231.205 35.0267 229.029 36.392C226.853 37.7147 225.125 39.528 223.845 41.832C222.565 44.0933 221.925 46.6533 221.925 49.512ZM283.977 25.896C289.908 25.896 294.452 27.3467 297.609 30.248C300.809 33.1067 302.409 36.9467 302.409 41.768C302.409 44.456 301.833 47.1013 300.681 49.704C299.572 52.3067 297.673 54.376 294.985 55.912L305.929 73H295.113L285.193 58.024H278.985V73H269.705V25.896H283.977ZM285.577 49.064C287.454 49.064 288.905 48.68 289.929 47.912C290.996 47.1013 291.742 46.1627 292.169 45.096C292.596 43.9867 292.809 42.984 292.809 42.088C292.809 41.576 292.724 40.936 292.553 40.168C292.425 39.3573 292.126 38.5467 291.657 37.736C291.188 36.9253 290.462 36.2427 289.481 35.688C288.542 35.1333 287.262 34.856 285.641 34.856H278.985V49.064H285.577ZM350.163 68.264C349.608 68.8613 348.734 69.48 347.539 70.12C346.344 70.7173 344.958 71.272 343.379 71.784C341.843 72.296 340.264 72.7013 338.643 73C337.022 73.3413 335.486 73.512 334.035 73.512C328.958 73.512 324.542 72.5307 320.787 70.568C317.032 68.6053 314.131 65.9173 312.083 62.504C310.078 59.0907 309.075 55.1867 309.075 50.792C309.075 46.4827 309.715 42.7493 310.995 39.592C312.318 36.392 314.088 33.7467 316.307 31.656C318.568 29.5227 321.15 27.944 324.051 26.92C326.995 25.896 330.067 25.384 333.267 25.384C336.296 25.384 339.07 25.7253 341.587 26.408C344.104 27.048 346.238 27.8587 347.987 28.84L344.979 37.48C344.211 37.0533 343.187 36.6267 341.907 36.2C340.627 35.7733 339.326 35.432 338.003 35.176C336.68 34.8773 335.507 34.728 334.483 34.728C329.406 34.728 325.502 36.008 322.771 38.568C320.04 41.0853 318.675 44.8827 318.675 49.96C318.675 52.904 319.336 55.4427 320.659 57.576C321.982 59.7093 323.816 61.352 326.163 62.504C328.552 63.656 331.262 64.232 334.291 64.232C335.614 64.232 336.83 64.1467 337.939 63.976C339.048 63.7627 339.987 63.4427 340.755 63.016V57.32H332.627V48.36H350.163V68.264ZM360.705 25.896H392.833V34.856H369.985V44.904H390.209V53.864H369.985V64.04H393.729V73H360.705V25.896Z" fill="white"/>
<path d="M430.685 25.896C435.592 25.896 439.496 26.8987 442.397 28.904C445.299 30.8667 446.749 33.8107 446.749 37.736C446.749 40.1253 446.237 42.1947 445.213 43.944C444.232 45.6933 442.867 47.1013 441.117 48.168C443.549 49.32 445.469 50.8347 446.877 52.712C448.285 54.5467 448.989 56.68 448.989 59.112C448.989 61.672 448.52 63.848 447.581 65.64C446.685 67.3893 445.448 68.8187 443.869 69.928C442.333 70.9947 440.584 71.784 438.621 72.296C436.659 72.7653 434.632 73 432.541 73H416.861V25.896H430.685ZM431.773 45.16C433.608 45.16 434.952 44.6053 435.805 43.496C436.701 42.3867 437.149 41.128 437.149 39.72C437.149 38.0987 436.595 36.8827 435.485 36.072C434.419 35.2613 432.968 34.856 431.133 34.856H426.141V45.16H431.773ZM432.093 64.36C434.141 64.36 435.869 63.9547 437.277 63.144C438.685 62.2907 439.389 60.9467 439.389 59.112C439.389 57.7467 439.005 56.7227 438.237 56.04C437.469 55.3147 436.467 54.824 435.229 54.568C434.035 54.2693 432.776 54.12 431.453 54.12H426.141V64.36H432.093ZM453.179 68.392C453.179 67.0693 453.648 65.96 454.587 65.064C455.568 64.168 456.635 63.72 457.787 63.72C458.853 63.72 459.856 64.168 460.795 65.064C461.776 65.96 462.267 67.0693 462.267 68.392C462.267 69.8 461.776 70.9307 460.795 71.784C459.856 72.5947 458.853 73 457.787 73C456.635 73 455.568 72.5947 454.587 71.784C453.648 70.9307 453.179 69.8 453.179 68.392Z" fill="#DD950D"/>
<path d="M120.225 83.048H148.497V91.028H138.294V125H130.029V91.028H120.225V83.048ZM191.757 83.048V125H183.492V107.957H164.739V125H156.474V83.048H164.739V99.977H183.492V83.048H191.757ZM199.998 104.081C199.998 101.193 200.549 98.457 201.651 95.873C202.753 93.289 204.273 91.009 206.211 89.033C208.187 87.019 210.467 85.442 213.051 84.302C215.635 83.162 218.409 82.592 221.373 82.592C224.299 82.592 227.054 83.162 229.638 84.302C232.222 85.442 234.502 87.019 236.478 89.033C238.492 91.009 240.05 93.289 241.152 95.873C242.292 98.457 242.862 101.193 242.862 104.081C242.862 107.045 242.292 109.819 241.152 112.403C240.05 114.987 238.492 117.267 236.478 119.243C234.502 121.181 232.222 122.701 229.638 123.803C227.054 124.905 224.299 125.456 221.373 125.456C218.409 125.456 215.635 124.905 213.051 123.803C210.467 122.701 208.187 121.181 206.211 119.243C204.273 117.267 202.753 114.987 201.651 112.403C200.549 109.819 199.998 107.045 199.998 104.081ZM208.548 104.081C208.548 106.551 209.118 108.812 210.258 110.864C211.436 112.878 213.013 114.493 214.989 115.709C216.965 116.887 219.188 117.476 221.658 117.476C224.052 117.476 226.199 116.887 228.099 115.709C230.037 114.493 231.557 112.878 232.659 110.864C233.761 108.812 234.312 106.551 234.312 104.081C234.312 101.535 233.742 99.255 232.602 97.241C231.462 95.189 229.923 93.574 227.985 92.396C226.047 91.18 223.862 90.572 221.43 90.572C218.998 90.572 216.813 91.18 214.875 92.396C212.937 93.574 211.398 95.189 210.258 97.241C209.118 99.255 208.548 101.535 208.548 104.081ZM251.103 125V81.338H251.16L272.421 111.491L294.195 81.338H294.309V125H286.044V104.993L272.364 124.43H272.25L259.083 106.247V125H251.103ZM317.863 83.048C323.069 83.048 327.059 84.34 329.833 86.924C332.607 89.47 333.994 92.89 333.994 97.184C333.994 98.894 333.728 100.623 333.196 102.371C332.702 104.081 331.885 105.639 330.745 107.045C329.643 108.451 328.142 109.591 326.242 110.465C324.38 111.301 322.081 111.719 319.345 111.719H313.417V125H305.152V83.048H317.863ZM319.288 103.682C320.96 103.682 322.252 103.321 323.164 102.599C324.114 101.839 324.779 100.965 325.159 99.977C325.539 98.989 325.729 98.134 325.729 97.412C325.729 96.994 325.653 96.443 325.501 95.759C325.387 95.037 325.121 94.315 324.703 93.593C324.285 92.871 323.639 92.263 322.765 91.769C321.929 91.275 320.789 91.028 319.345 91.028H313.417V103.682H319.288ZM363.791 93.194C362.195 92.32 360.561 91.598 358.889 91.028C357.255 90.458 355.716 90.173 354.272 90.173C352.486 90.173 351.08 90.534 350.054 91.256C349.028 91.978 348.515 93.061 348.515 94.505C348.515 95.493 348.895 96.386 349.655 97.184C350.453 97.944 351.46 98.628 352.676 99.236C353.93 99.844 355.222 100.395 356.552 100.889C358.186 101.497 359.763 102.276 361.283 103.226C362.803 104.138 364.057 105.411 365.045 107.045C366.033 108.641 366.527 110.769 366.527 113.429C366.527 115.557 365.976 117.533 364.874 119.357C363.772 121.181 362.157 122.663 360.029 123.803C357.901 124.905 355.279 125.456 352.163 125.456C349.769 125.456 347.318 125.095 344.81 124.373C342.34 123.651 340.003 122.511 337.799 120.953L341.447 114.512C342.891 115.576 344.544 116.45 346.406 117.134C348.268 117.818 349.94 118.16 351.422 118.16C352.41 118.16 353.398 118.027 354.386 117.761C355.412 117.457 356.248 116.963 356.894 116.279C357.578 115.595 357.92 114.645 357.92 113.429C357.92 112.175 357.312 111.092 356.096 110.18C354.918 109.23 353.493 108.432 351.821 107.786C350.529 107.292 349.199 106.722 347.831 106.076C346.463 105.43 345.171 104.651 343.955 103.739C342.777 102.789 341.808 101.63 341.048 100.262C340.326 98.856 339.965 97.146 339.965 95.132C339.965 92.7 340.497 90.591 341.561 88.805C342.663 87.019 344.202 85.613 346.178 84.587C348.154 83.523 350.434 82.934 353.018 82.82C356.4 82.82 359.136 83.219 361.226 84.017C363.354 84.815 365.254 85.765 366.926 86.867L363.791 93.194ZM372.056 104.081C372.056 101.193 372.607 98.457 373.709 95.873C374.811 93.289 376.331 91.009 378.269 89.033C380.245 87.019 382.525 85.442 385.109 84.302C387.693 83.162 390.467 82.592 393.431 82.592C396.357 82.592 399.112 83.162 401.696 84.302C404.28 85.442 406.56 87.019 408.536 89.033C410.55 91.009 412.108 93.289 413.21 95.873C414.35 98.457 414.92 101.193 414.92 104.081C414.92 107.045 414.35 109.819 413.21 112.403C412.108 114.987 410.55 117.267 408.536 119.243C406.56 121.181 404.28 122.701 401.696 123.803C399.112 124.905 396.357 125.456 393.431 125.456C390.467 125.456 387.693 124.905 385.109 123.803C382.525 122.701 380.245 121.181 378.269 119.243C376.331 117.267 374.811 114.987 373.709 112.403C372.607 109.819 372.056 107.045 372.056 104.081ZM380.606 104.081C380.606 106.551 381.176 108.812 382.316 110.864C383.494 112.878 385.071 114.493 387.047 115.709C389.023 116.887 391.246 117.476 393.716 117.476C396.11 117.476 398.257 116.887 400.157 115.709C402.095 114.493 403.615 112.878 404.717 110.864C405.819 108.812 406.37 106.551 406.37 104.081C406.37 101.535 405.8 99.255 404.66 97.241C403.52 95.189 401.981 93.574 400.043 92.396C398.105 91.18 395.92 90.572 393.488 90.572C391.056 90.572 388.871 91.18 386.933 92.396C384.995 93.574 383.456 95.189 382.316 97.241C381.176 99.255 380.606 101.535 380.606 104.081ZM460.723 126.71L431.368 100.205L431.539 125H423.16V81.395H423.502L452.8 108.299L452.629 83.048H460.951V126.71H460.723Z" fill="white"/>
<defs>
<clipPath id="clip0">
<rect width="124" height="118" fill="white" transform="translate(0 16)"/>
</clipPath>
</defs>
</svg>
