<?xml version="1.0" standalone="no"?>
<!DOCTYPE svg PUBLIC "-//W3C//DTD SVG 20010904//EN"
 "http://www.w3.org/TR/2001/REC-SVG-20010904/DTD/svg10.dtd">
<svg version="1.0" xmlns="http://www.w3.org/2000/svg"
 width="571.000000pt" height="571.000000pt" viewBox="0 0 571.000000 571.000000"
 preserveAspectRatio="xMidYMid meet">
<metadata>
Created by potrace 1.11, written by Peter Selinger 2001-2013
</metadata>
<g transform="translate(0.000000,571.000000) scale(0.100000,-0.100000)"
fill="#000000" stroke="none">
<path d="M2695 5294 c-16 -2 -73 -9 -125 -15 -362 -41 -730 -178 -1047 -389
-707 -469 -1123 -1278 -1089 -2120 24 -618 258 -1171 681 -1609 206 -214 412
-365 675 -495 234 -116 473 -192 730 -232 159 -25 536 -26 701 -1 608 91 1141
390 1537 862 160 191 330 487 416 725 49 136 100 335 122 480 25 159 26 536 1
701 -82 552 -332 1034 -736 1421 -461 442 -1074 684 -1711 676 -69 0 -138 -3
-155 -4z m-865 -1668 c52 -13 121 -35 153 -50 52 -23 58 -28 51 -48 -17 -56
-83 -240 -87 -245 -3 -2 -37 7 -75 21 -38 13 -104 32 -145 40 -238 49 -468
-34 -560 -202 -76 -139 -76 -372 0 -501 62 -106 189 -188 326 -211 87 -15 229
-8 280 13 l37 16 0 90 0 91 -130 0 -131 0 3 143 3 142 278 3 277 2 0 -324 0
-323 -40 -27 c-55 -36 -168 -79 -280 -106 -127 -31 -297 -32 -422 -2 -227 55
-399 185 -489 367 -61 126 -74 187 -73 355 2 174 21 258 90 399 81 164 231
291 409 347 44 13 107 29 140 34 97 15 278 4 385 -24z m1264 -11 c83 -23 150
-59 203 -108 55 -51 79 -96 93 -178 23 -132 -20 -261 -117 -349 -30 -28 -54
-52 -52 -54 2 -1 25 -14 51 -29 66 -38 137 -113 167 -177 23 -48 26 -67 25
-150 -2 -151 -57 -260 -165 -332 -123 -80 -231 -98 -604 -98 l-245 0 0 751 0
751 293 -5 c233 -4 304 -8 351 -22z m1586 -115 l0 -140 -182 -2 -183 -3 -3
-607 -2 -608 -145 0 -145 0 -2 608 -3 607 -172 3 -173 2 0 140 0 140 505 0
505 0 0 -140z"/>
<path d="M2740 3191 l0 -171 98 0 c114 0 167 12 204 48 59 55 74 163 30 221
-40 53 -77 66 -209 70 l-123 3 0 -171z"/>
<path d="M2747 2743 c-4 -3 -7 -80 -7 -171 l0 -164 143 4 c127 3 147 6 191 28
65 32 88 66 94 132 7 94 -49 147 -178 167 -73 12 -233 15 -243 4z"/>
</g>
</svg>
